<svg width="18" height="18" viewBox="0 0 18 18" fill="none" xmlns="http://www.w3.org/2000/svg">
<g opacity="0.7">
<path fill-rule="evenodd" clip-rule="evenodd" d="M8.66457 0.82918C8.87572 0.723607 9.12424 0.723607 9.33539 0.82918L16.8354 4.57918C17.0895 4.70622 17.25 4.96592 17.25 5.25C17.25 5.53408 17.0895 5.79378 16.8354 5.92082L9.33539 9.67082C9.12424 9.77639 8.87572 9.77639 8.66457 9.67082L1.16457 5.92082C0.910483 5.79378 0.749981 5.53408 0.749981 5.25C0.749981 4.96592 0.910483 4.70622 1.16457 4.57918L8.66457 0.82918ZM3.17703 5.25L8.99998 8.16147L14.8229 5.25L8.99998 2.33853L3.17703 5.25Z" fill="#39393A"/>
<path fill-rule="evenodd" clip-rule="evenodd" d="M0.829161 12.4146C1.0144 12.0441 1.46491 11.8939 1.83539 12.0792L8.99998 15.6615L16.1646 12.0792C16.5351 11.8939 16.9856 12.0441 17.1708 12.4146C17.356 12.7851 17.2059 13.2356 16.8354 13.4208L9.33539 17.1708C9.12424 17.2764 8.87572 17.2764 8.66457 17.1708L1.16457 13.4208C0.794087 13.2356 0.643919 12.7851 0.829161 12.4146Z" fill="#39393A"/>
<path fill-rule="evenodd" clip-rule="evenodd" d="M0.829161 8.66459C1.0144 8.29411 1.46491 8.14394 1.83539 8.32918L8.99998 11.9115L16.1646 8.32918C16.5351 8.14394 16.9856 8.29411 17.1708 8.66459C17.356 9.03507 17.2059 9.48558 16.8354 9.67082L9.33539 13.4208C9.12424 13.5264 8.87572 13.5264 8.66457 13.4208L1.16457 9.67082C0.794087 9.48558 0.643919 9.03507 0.829161 8.66459Z" fill="#39393A"/>
</g>
</svg>
