<svg width="19" height="25" viewBox="0 0 19 25" fill="none" xmlns="http://www.w3.org/2000/svg">
<path d="M16.507 0H3.175C1.9 0 0.869995 1.034 0.869995 2.309V29.379C0.869995 30.65 1.9 31.685 3.175 31.685H16.507C17.78 31.685 18.814 30.651 18.814 29.379V2.309C18.813 1.034 17.78 0 16.507 0ZM17.085 25.672H2.599V3.895H17.085V25.672ZM12.932 2.343H6.751V1.669H12.933L12.932 2.343ZM15.577 2.035C15.577 2.361 15.311 2.625 14.986 2.625C14.66 2.625 14.395 2.36 14.395 2.035C14.395 1.71 14.66 1.445 14.986 1.445C15.312 1.444 15.577 1.709 15.577 2.035ZM12.655 29.225H7.026V27.493H12.655V29.225Z" fill="#717F88"/>
</svg>
