<svg width="24" height="24" viewBox="0 0 24 24" fill="none" xmlns="http://www.w3.org/2000/svg">
<path d="M8.55284 7.28817L10.875 4.96603V17.25C10.875 17.5484 10.9935 17.8346 11.2045 18.0455C11.4155 18.2565 11.7016 18.375 12 18.375C12.2984 18.375 12.5845 18.2565 12.7955 18.0455C13.0065 17.8346 13.125 17.5484 13.125 17.25V4.96603L15.4471 7.28817C15.5515 7.3931 15.6755 7.47641 15.8121 7.53332C15.9488 7.59024 16.0953 7.61964 16.2433 7.61984C16.3912 7.62004 16.5378 7.59104 16.6746 7.53449C16.8114 7.47795 16.9356 7.39498 17.0403 7.29033C17.1449 7.18569 17.2279 7.06142 17.2844 6.92465C17.341 6.78788 17.37 6.6413 17.3698 6.49331C17.3696 6.34531 17.3402 6.19881 17.2833 6.0622C17.2264 5.92559 17.143 5.80155 17.0381 5.69718L12.7955 1.45453C12.691 1.35005 12.567 1.26718 12.4305 1.21064C12.294 1.1541 12.1477 1.125 12 1.125C11.8522 1.125 11.7059 1.1541 11.5695 1.21064C11.433 1.26718 11.3089 1.35005 11.2045 1.45453L6.96186 5.69718C6.85693 5.80155 6.77362 5.92559 6.7167 6.0622C6.65979 6.19881 6.63039 6.34531 6.63019 6.49331C6.62999 6.6413 6.65899 6.78788 6.71553 6.92465C6.77207 7.06142 6.85505 7.18569 6.95969 7.29033C7.06434 7.39498 7.18861 7.47795 7.32538 7.53449C7.46214 7.59104 7.60872 7.62004 7.75672 7.61984C7.90471 7.61964 8.05121 7.59024 8.18783 7.53332C8.32444 7.47641 8.44848 7.3931 8.55284 7.28817Z" fill="#3245B8"/>
<path d="M21.75 10.875C21.4516 10.875 21.1655 10.9935 20.9545 11.2045C20.7435 11.4155 20.625 11.7016 20.625 12V20.625H3.375V12C3.375 11.7016 3.25647 11.4155 3.0455 11.2045C2.83452 10.9935 2.54837 10.875 2.25 10.875C1.95163 10.875 1.66548 10.9935 1.4545 11.2045C1.24353 11.4155 1.125 11.7016 1.125 12V21C1.125 21.4973 1.32254 21.9742 1.67417 22.3258C2.02581 22.6775 2.50272 22.875 3 22.875H21C21.4973 22.875 21.9742 22.6775 22.3258 22.3258C22.6775 21.9742 22.875 21.4973 22.875 21V12C22.875 11.7016 22.7565 11.4155 22.5455 11.2045C22.3345 10.9935 22.0484 10.875 21.75 10.875Z" fill="#3245B8"/>
</svg>
